<?xml version="1.0" encoding="iso-8859-1"?>
<!-- Generator: Adobe Illustrator 19.0.0, SVG Export Plug-In . SVG Version: 6.00 Build 0)  -->
<!-- License: CC0. Made by SVG Repo: https://www.svgrepo.com/svg/264511/easter-bunny-rabbit -->
<svg version="1.1" id="Layer_1" xmlns="http://www.w3.org/2000/svg" xmlns:xlink="http://www.w3.org/1999/xlink" x="0px" y="0px"
	 viewBox="0 0 512 512" style="enable-background:new 0 0 512 512;" xml:space="preserve">
<g>
	<g>
		<circle cx="255.442" cy="237.46" r="9.374"/>
	</g>
</g>
<g>
	<g>
		<path d="M338.018,272.06c-2.034-3.947-6.884-5.498-10.833-3.462c-6.767,3.488-12.031,4.452-14.824,2.713
			c-3.628-2.259-4.909-9.489-5.066-13.606c2.455-1.457,4.008-3.563,4.008-5.912c0-4.396-5.402-7.959-12.065-7.959
			s-12.065,3.563-12.065,7.959c0,2.349,1.553,4.455,4.007,5.911c-0.161,4.143-1.443,11.351-5.065,13.607
			c-2.793,1.738-8.057,0.775-14.824-2.713c-3.947-2.035-8.798-0.485-10.833,3.462c-2.035,3.948-0.485,8.798,3.463,10.833
			c6.928,3.572,13.219,5.359,18.822,5.359c4.417,0,8.406-1.111,11.945-3.334c1.747-1.097,3.252-2.394,4.55-3.82
			c1.297,1.427,2.802,2.724,4.55,3.82c8.027,5.043,18.378,4.361,30.767-2.026C338.503,280.858,340.053,276.008,338.018,272.06z"/>
	</g>
</g>
<g>
	<g>
		<circle cx="343.045" cy="237.46" r="9.374"/>
	</g>
</g>
<g>
	<g>
		<path d="M409.809,123.925c3.593,2.612,8.622,1.816,11.234-1.776c29.015-39.913,40.968-69.945,36.543-91.81
			c-2.15-10.625-8.087-18.937-17.647-24.705c-10.055-6.067-21.15-7.26-32.085-3.454c-27.542,9.588-55.838,51.777-84.151,125.438
			c-7.781-2.209-15.984-3.409-24.463-3.409c-8.48,0-16.683,1.2-24.465,3.41c-15.713-40.885-31.482-72.296-46.915-93.432
			c-15.44-21.145-41.742-45.193-69.32-28.553c-10.113,6.101-16.354,15.429-18.045,26.97c-4.411,30.108,22.11,77.427,78.803,140.672
			c-5.238,10.259-8.578,21.642-9.505,33.694c-5.882,1.68-11.337,5.282-16.043,10.586c-28.486-16.615-57.054-21.237-79.87-12.58
			c-14.963,5.678-28.298,17.515-38.562,34.233c-2.324,3.785-1.14,8.737,2.645,11.06c3.785,2.325,8.737,1.14,11.06-2.645
			c8.387-13.658,18.955-23.207,30.562-27.61c45.485-17.259,94.845,27.372,119.573,60.803c8.864,11.983,16.51,24.864,22.796,38.38
			c0.216,0.462,0.432,0.924,0.646,1.388c-0.331,0.063-0.654,0.153-0.983,0.224c-0.066,0.015-0.132,0.03-0.198,0.045
			c-18.53,4.102-31.617,22.412-29.783,41.268c1.538,15.793,12.793,29.416,29.087,33.388c1.603,0.388,19.914,3.382,19.924,3.038
			c-0.031,1.052-0.08,2.102-0.16,3.164c-1.929,1.203-3.8,2.502-5.603,3.887c-2.108,1.621-4.135,3.363-6.016,5.243
			c-11.133,11.126-21.436,30.542-20.821,49.728c0.001,0.026-8.043,3.082-8.532,3.333c-3.394,1.74-6.569,3.924-9.314,6.579
			c-4.121,3.987-6.841,9.573-7.287,15.306c-0.726,0.298-1.444,0.581-2.154,0.851c-24.088,9.14-49.938,7.994-72.79-3.23
			c-27.214-13.366-49.259-40.618-63.753-78.812c-16.149-42.556-19.084-88.875-8.054-127.079c1.232-4.266-1.229-8.725-5.495-9.957
			c-4.268-1.233-8.725,1.229-9.957,5.495c-11.976,41.479-8.89,91.503,8.469,137.247c15.966,42.075,40.759,72.347,71.7,87.543
			c14.904,7.32,30.881,11.001,46.983,11c12.953,0,25.987-2.383,38.602-7.17c0.208-0.078,0.419-0.165,0.628-0.246
			c4.449,6.553,11.84,10.568,20.019,10.568h61.374c5.222,0,10.471-0.54,15.602-1.606c4.349-0.903,7.142-5.161,6.238-9.509
			c-0.904-4.348-5.16-7.142-9.509-6.238c-4.057,0.843-8.207,1.27-12.332,1.27h-61.375c-5.167,0-7.13-4.005-7.611-5.234
			c-1.182-3.027-0.41-6.536,1.987-8.74c6.743-6.202,15.694-6.769,15.727-6.772c2.361-0.096,4.56-1.228,6.013-3.09
			c1.453-1.864,2.013-4.272,1.53-6.586c-6.638-31.852,29.582-63.191,59.779-59.778c4.257,0.481,8.429,1.629,12.326,3.411
			c27.351,12.505,31.021,52.318,10.151,72.18c-3.217,3.061-3.343,8.152-0.282,11.37c3.062,3.218,8.153,3.343,11.37,0.282
			c5.764-5.487,10.27-11.917,13.416-18.966c4.438,1.965,9.271,3.006,14.231,3.006c19.398,0,35.179-15.781,35.179-35.178
			c0-19.398-15.781-35.179-35.179-35.179c-1.516,0-3.029,0.106-4.529,0.301c-0.763-20.64-5.564-38.26-10.753-51.579
			c0.317-1.757,0.521-3.548,0.594-5.363c0.146-3.658-0.229-7.257-1.078-10.717c18.816-9.262,33.073-23.024,41.461-40.163
			c7.905-16.153,10.353-34.731,6.893-52.309c-4.088-20.774-15.539-35.764-29.649-39.826c-0.926-12.056-4.264-23.442-9.502-33.703
			c7.749-8.644,15.022-17.088,21.664-25.153c2.823-3.428,2.332-8.496-1.097-11.32c-3.428-2.824-8.497-2.333-11.32,1.096
			c-5.623,6.829-11.713,13.941-18.175,21.225c-3.847-4.971-8.209-9.516-12.985-13.57c-0.029-0.025-0.058-0.048-0.087-0.073
			c-2.884-2.454-5.934-4.714-9.11-6.776c-0.753-0.488-9.333-5.394-9.354-5.339c32.919-85.724,58.557-110.481,74.418-116.002
			c6.45-2.246,12.497-1.581,18.489,2.034c5.622,3.393,8.955,8.012,10.193,14.125c2.36,11.663-1.586,34.864-33.79,79.162
			C405.421,116.284,406.216,121.313,409.809,123.925z M376.421,455.541c0.02-0.205,0.04-0.411,0.059-0.617
			c0.148-1.629,0.24-3.261,0.261-4.896c0.392-1.59,0.75-3.186,1.094-4.786c1.621-7.551,2.622-14.869,3.113-21.914
			c1.55-0.402,3.156-0.605,4.802-0.605c10.529,0,19.096,8.566,19.096,19.096c0,10.528-8.566,19.095-19.096,19.095
			c-3.432,0-6.753-0.915-9.659-2.624C376.222,457.378,376.329,456.46,376.421,455.541z M156.408,34.937
			c0.998-6.815,4.412-11.894,10.438-15.53c14.726-8.886,29.288,2.459,39.17,13.222c19.259,20.974,31.848,48.398,42.983,74.247
			c3.771,8.755,7.337,17.598,10.756,26.496c-0.024-0.055-10.904,6.351-11.875,7.035c-0.095,0.068-0.19,0.134-0.285,0.202
			c-7.319,5.167-13.87,11.411-19.371,18.518C196.607,123.406,151.796,66.416,156.408,34.937z M288.892,382.895
			c-1.825-0.047-3.667-0.141-5.523-0.275c-0.129-0.01-0.257-0.017-0.386-0.027c-8.445-0.652-18.537-1.027-25.777-5.953
			c-6.08-4.137-9.755-11.21-9.665-18.562c0.139-11.337,8.947-20.716,20.169-21.818c3.697-0.363,7.149,0.391,10.766,0.996
			c11.95,1.997,25.409,2.034,36.452-3.622c0.042-0.021,0.076-0.042,0.119-0.063c2.75-1.424,4.963-3.62,7.737-5.008
			c7.264-3.636,16.234-2.987,22.85,1.739c1.242,0.888,2.404,1.912,3.47,3.066c3.979,4.312,6.118,10.124,5.885,15.985
			c-0.551,13.769-13.443,21.306-24.674,26.117C317.295,381.051,303.005,383.261,288.892,382.895z M364.88,412.143
			c-5.38-7.311-12.542-13.346-20.727-17.279c-3.171-1.524-6.555-2.726-9.972-3.562c4.782-1.901,9.451-4.116,13.866-6.766
			c3.284-1.97,6.533-4.257,9.469-6.796c0.326-0.282,2.721-2.135,2.633-2.455c2.955,10.728,5.091,23.335,5.09,37.354
			C365.121,412.472,365.001,412.307,364.88,412.143z M339.956,152.617c5.832,3.882,11.477,8.926,16.069,14.485
			c0.009,0.011,0.018,0.022,0.027,0.032c10.503,12.73,16.819,29.035,16.819,46.789c0,4.441,3.601,8.042,8.042,8.042
			c9.354,0,18.457,11.754,21.643,27.948c4.702,23.889-3.169,57.036-39.607,74.929c-0.047-0.06-0.101-0.115-0.149-0.176
			c-0.598-0.753-1.217-1.493-1.875-2.207c-7.235-7.839-17.507-12.334-28.18-12.334c-8.755,0-17.606,3.147-24.428,8.795
			c-0.079,0.047-0.19,0.11-0.316,0.18c-7.946,4.372-18.338,3.728-26.976,2.266c-0.185-0.031-0.376-0.072-0.563-0.105
			c-0.035-0.085-0.073-0.169-0.109-0.254c-16.305-38.85-41.968-72.156-72.79-94.435c-0.032-0.023-0.063-0.047-0.095-0.07
			c2.67-2.494,6.083-4.538,10.098-4.538c4.441,0,8.042-3.601,8.042-8.042c0-17.759,6.32-34.068,16.84-46.815
			c7.723-9.362,17.788-16.816,29.043-21.37c8.569-3.5,17.933-5.446,27.748-5.446C313.655,140.294,327.958,144.631,339.956,152.617z"
			/>
	</g>
</g>
</svg>
