<?xml version="1.0" encoding="UTF-8" standalone="no"?>
<!DOCTYPE svg PUBLIC "-//W3C//DTD SVG 1.1//EN" "http://www.w3.org/Graphics/SVG/1.1/DTD/svg11.dtd">
<svg width="100%" height="100%" viewBox="0 0 39 49" version="1.1" xmlns="http://www.w3.org/2000/svg" xmlns:xlink="http://www.w3.org/1999/xlink" xml:space="preserve" xmlns:serif="http://www.serif.com/" style="fill-rule:evenodd;clip-rule:evenodd;stroke-linejoin:round;stroke-miterlimit:2;">
    <g transform="matrix(1,0,0,1,0.000372679,-0.77826)">
        <g>
            <path d="M18.561,1.426C17.12,1.426 14.123,1.603 10.228,2.772C4.859,4.386 1.486,6.376 1.345,6.46C1.025,6.649 0.828,6.993 0.824,7.363C0.753,16.912 0.755,23.046 0.828,23.884C0.889,24.553 1.529,30.6 5.585,36.556C11.533,45.292 18.475,48.311 18.768,48.437C18.899,48.492 19.036,48.521 19.178,48.521L19.374,48.521C19.513,48.521 19.653,48.492 19.787,48.434C20.078,48.311 27.016,45.292 32.967,36.556C37.015,30.609 37.664,24.552 37.723,23.88C37.796,23.046 37.798,16.912 37.729,7.478C37.725,6.993 37.524,6.649 37.207,6.46C37.066,6.376 33.693,4.386 28.325,2.772C23.495,1.319 20.066,1.407 19.356,1.443C19.152,1.436 18.906,1.426 18.561,1.426Z" style="fill:white;fill-rule:nonzero;"/>
            <path d="M19.288,46.82C19.288,46.82 25.975,43.998 31.69,35.603C35.235,30.4 36.045,24.949 36.156,23.736C36.272,22.415 36.156,7.725 36.156,7.725C36.156,7.725 32.866,5.774 27.718,4.229C22.602,2.689 19.239,2.981 19.239,2.981C19.239,2.981 15.784,2.689 10.666,4.229C5.516,5.774 2.231,7.725 2.231,7.725C2.231,7.725 2.113,22.415 2.231,23.736C2.338,24.949 3.148,30.4 6.693,35.603C12.408,43.998 19.097,46.82 19.097,46.82L19.288,46.82Z" style="fill:#555555;fill-rule:nonzero;"/>
            <path d="M19.288,49L19.097,49C18.808,49 18.523,48.942 18.251,48.829C17.95,48.702 10.881,45.629 4.893,36.831C0.771,30.783 0.12,24.612 0.059,23.928C-0.048,22.702 0.016,12.253 0.048,7.819C0.054,6.949 0.466,6.237 1.119,5.851C1.26,5.764 4.668,3.755 10.04,2.14C14.959,0.662 18.531,0.754 19.269,0.797C19.353,0.789 19.608,0.78 19.969,0.78C21.404,0.78 24.407,0.956 28.346,2.14C33.717,3.755 37.125,5.764 37.266,5.851C37.919,6.237 38.329,6.949 38.334,7.706C38.367,12.253 38.434,22.702 38.325,23.928C38.264,24.612 37.604,30.795 33.492,36.831C27.502,45.629 20.434,48.702 20.134,48.829C19.862,48.942 19.578,49 19.288,49ZM18.495,1.926C17.089,1.926 14.167,2.098 10.368,3.239C5.132,4.813 1.843,6.754 1.705,6.835C1.393,7.02 1.201,7.355 1.197,7.716C1.128,17.029 1.13,23.011 1.201,23.828C1.26,24.48 1.885,30.377 5.841,36.186C11.641,44.706 18.411,47.651 18.697,47.773C18.825,47.827 18.958,47.855 19.097,47.855L19.288,47.855C19.424,47.855 19.56,47.827 19.691,47.77C19.974,47.651 26.741,44.706 32.544,36.186C36.492,30.387 37.125,24.479 37.183,23.824C37.254,23.011 37.256,17.029 37.188,7.828C37.185,7.355 36.989,7.02 36.68,6.835C36.543,6.754 33.253,4.813 28.017,3.239C23.307,1.821 19.963,1.908 19.27,1.942C19.071,1.936 18.832,1.926 18.495,1.926Z" style="fill:#555555;fill-rule:nonzero;"/>
            <path d="M22.1,15.666C22.327,15.705 22.467,16.158 22.645,16.362C22.827,16.566 23.056,17.059 23.194,16.981C23.332,16.893 23.47,16.241 23.332,15.829C23.194,15.417 22.42,14.885 22.236,14.679C22.056,14.474 22.193,14.104 22.287,14.23C22.367,14.351 22.918,14.556 22.918,14.556C22.918,14.556 23.104,14.23 23.056,14.021C23.01,13.815 22.467,13.121 22.193,12.791C21.918,12.46 21.642,12.422 21.465,12.297C21.279,12.172 21.503,11.931 21.687,11.763C21.869,11.601 21.732,11.394 21.869,11.313C22.008,11.232 22.1,11.024 21.918,10.818C21.732,10.61 21.095,10.983 21.144,10.861C21.19,10.737 21.869,10.452 22.056,10.367C22.236,10.288 22.599,9.755 22.467,9.628C22.327,9.507 21.918,9.795 21.553,9.917C21.185,10.043 20.551,10 19.952,9.917C19.363,9.834 19.111,9.384 18.314,9.384C17.451,9.384 16.852,9.795 16.184,10.238C15.401,10.754 14.605,11.322 14.436,11.478C14.116,11.763 14.347,11.97 14.347,11.97C14.347,11.97 15.779,11.718 16.579,12.422C16.845,12.654 16.946,13.612 16.764,13.78C16.579,13.941 16.17,14.845 16.03,15.173C15.893,15.501 15.667,16.241 15.715,16.937C15.756,17.637 16.17,18.743 15.848,19.156C15.53,19.563 15.211,20.058 14.297,19.563C13.388,19.069 12.977,19.029 12.43,17.718C11.881,16.406 11.881,15.541 12.065,14.351C12.245,13.16 12.015,12.911 11.702,12.584C11.379,12.258 10.327,12.337 9.509,11.931C8.69,11.519 8.048,11.19 7.595,10.536C7.137,9.873 6.956,8.767 6.999,8.271C7.045,7.787 7.322,7.369 7.413,7.084C7.504,6.798 7.365,6.588 7.137,6.798C6.908,7.002 5.907,7.697 5.677,8.271C5.448,8.852 5.129,9.755 5.172,10.409C5.225,11.065 5.494,12.009 5.816,12.668C6.134,13.324 5.265,12.829 4.991,12.668C4.72,12.503 4.537,12.911 4.537,13.121C4.537,13.324 4.629,13.815 4.72,13.981C4.809,14.145 4.354,13.981 4.171,14.145C3.989,14.308 4.354,15.173 4.584,15.501C4.809,15.829 4.078,15.786 4.126,16.075C4.171,16.362 4.537,17.224 4.857,17.513C5.172,17.8 5.723,18.129 6.041,18.664C6.356,19.194 6.412,19.978 6.356,20.178C6.312,20.384 6.271,21.005 6.502,21.37C6.727,21.739 6.543,22.109 6.454,22.314C6.356,22.52 7.045,23.836 7.639,24.368C8.229,24.903 9.461,25.106 9.921,25.313C10.378,25.515 11.379,25.6 11.972,25.558C12.566,25.515 13.433,25.107 13.614,24.984C13.797,24.861 13.66,24.864 13.109,24.489C12.566,24.121 11.198,22.846 11.062,22.56C10.923,22.273 12.015,22.686 12.52,22.767C13.017,22.848 13.338,22.643 13.388,22.478C13.433,22.314 11.924,21.618 11.152,21.043C10.378,20.469 11.152,20.099 11.016,19.771C10.878,19.443 10.012,18.251 9.875,17.8C9.74,17.35 10.286,16.075 10.649,16.732C11.016,17.387 11.469,18.251 12.2,18.905C12.931,19.563 13.523,20.299 14.482,20.629C15.44,20.96 17.425,19.88 17.915,19.787C18.975,19.599 19.678,18.585 22.712,21.055C23.635,21.809 25.074,20.208 26.447,18.97C27.175,18.314 27.631,17.45 27.997,16.791C28.359,16.137 29.592,15.851 29.413,16.424C29.228,16.999 28.906,17.409 28.769,17.858C28.639,18.314 27.768,19.503 27.631,19.832C27.495,20.163 28.272,20.527 27.495,21.103C26.72,21.676 25.215,22.377 25.261,22.539C25.307,22.703 25.626,22.913 26.126,22.83C26.629,22.749 27.723,22.337 27.585,22.62C27.449,22.913 26.078,24.184 25.535,24.552C24.985,24.928 24.849,24.921 25.031,25.046C25.215,25.169 26.078,25.58 26.673,25.621C27.264,25.661 28.272,25.58 28.723,25.374C29.183,25.167 30.415,24.965 31.008,24.431C31.599,23.898 32.284,22.582 32.195,22.377C32.103,22.171 31.919,21.802 32.147,21.435C32.375,21.065 32.332,20.449 32.284,20.243C32.241,20.037 32.284,19.259 32.607,18.725C32.922,18.186 33.474,17.858 33.792,17.573C34.11,17.286 34.475,16.424 34.52,16.137C34.564,15.851 33.837,15.89 34.066,15.56C34.292,15.236 34.657,14.369 34.475,14.207C34.292,14.046 33.837,14.207 33.924,14.045C34.017,13.879 34.11,13.386 34.11,13.178C34.11,12.975 33.924,12.564 33.655,12.73C33.381,12.892 32.513,13.386 32.83,12.73C33.148,12.069 33.425,11.127 33.474,10.471C33.518,9.815 33.198,8.911 32.967,8.331C32.739,7.762 31.736,7.066 31.508,6.856C31.284,6.652 31.142,6.856 31.233,7.145C31.323,7.432 31.599,7.84 31.647,8.331C31.689,8.83 31.508,9.937 31.055,10.596C30.597,11.255 29.957,11.579 29.135,11.991C28.317,12.402 27.264,12.315 26.949,12.645C26.629,12.975 26.398,13.222 26.581,14.411C26.764,15.6 26.764,16.465 26.214,17.78C25.67,19.093 25.261,19.134 24.351,19.627C23.434,20.118 23.118,19.627 22.799,19.218" style="fill:white;fill-rule:nonzero;"/>
            <path d="M17.628,32.507C17.633,32.514 18.101,33.179 18.08,33.527C18.054,33.979 17.468,34.461 17.44,34.479C17.746,34.456 17.997,34.484 19.013,34.328C19.999,34.176 20.692,34.003 20.904,33.786C20.846,33.773 20.665,33.546 19.731,33.267C19.055,33.062 18.08,33.048 17.628,32.507Z" style="fill:white;fill-rule:nonzero;"/>
            <path d="M27.253,34.77C27.27,34.383 27.126,33.85 26.342,33.497C24.752,32.897 23.048,34.187 18.994,35.178C14.381,36.305 12.631,34.904 12.617,34.887L12.476,34.72L12.693,34.678C12.792,34.664 12.973,34.623 13.043,34.593C13.109,34.564 13.269,34.376 13.332,34.209C13.386,34.061 13.387,33.727 13.253,33.51C13.075,33.214 12.688,33.172 12.298,33.172L12.264,33.172C12.143,33.172 11.737,33.292 11.472,33.573C11.298,33.755 11.216,33.964 11.227,34.198C11.266,35.099 11.929,35.658 12.536,35.968C12.896,36.149 14.856,37.225 19.043,35.924C23.233,34.624 24.474,34.376 24.784,34.347C25.302,34.291 25.495,34.359 25.524,34.369L25.791,34.463L25.542,34.6C25.479,34.635 25.295,34.742 25.216,34.797C25.13,34.86 24.927,35.152 24.943,35.467C24.96,35.761 25.274,36.079 25.937,36.125C25.969,36.127 26.002,36.127 26.033,36.127C27.192,36.127 27.252,34.827 27.253,34.77Z" style="fill:white;fill-rule:nonzero;"/>
            <path d="M18.98,45.622L18.982,36.905C18.575,36.996 17.458,37.188 17.227,37.218L17.227,44.749L18.98,45.622Z" style="fill:white;fill-rule:nonzero;"/>
            <path d="M19.479,45.666L21.173,44.871L21.173,36.478L19.474,36.819L19.479,45.666Z" style="fill:white;fill-rule:nonzero;"/>
            <path d="M19.211,21.621C19.738,21.572 20.331,21.95 20.458,22.341C20.663,22.964 20.36,23.573 20.246,23.632C20.163,23.672 19.879,23.885 19.032,23.532C18.505,23.313 18.277,22.893 18.322,22.677C18.52,21.727 19.211,21.621 19.211,21.621Z" style="fill:white;fill-rule:nonzero;"/>
            <path d="M17.361,30.065C17.361,30.065 16.136,31.204 19.055,31.885C21.485,32.453 21.131,32.871 21.131,32.871C21.131,32.871 22.246,31.648 19.319,30.924C17.432,30.456 17.361,30.065 17.361,30.065Z" style="fill:white;fill-rule:nonzero;"/>
            <path d="M17.395,27.904C17.395,27.904 16.168,29.042 19.091,29.725C21.522,30.293 21.171,30.711 21.171,30.711C21.171,30.711 22.286,29.486 19.357,28.76C17.463,28.289 17.395,27.904 17.395,27.904Z" style="fill:white;fill-rule:nonzero;"/>
            <path d="M17.385,25.684C17.385,25.684 16.127,26.852 19.125,27.553C21.62,28.136 21.259,28.564 21.259,28.564C21.259,28.564 22.404,27.31 19.397,26.563C17.455,26.082 17.385,25.684 17.385,25.684Z" style="fill:white;fill-rule:nonzero;"/>
            <path d="M17.704,23.77C17.704,23.77 16.631,24.766 19.188,25.363C21.315,25.863 21.008,26.227 21.008,26.227C21.008,26.227 21.985,25.157 19.42,24.519C17.762,24.106 17.704,23.77 17.704,23.77Z" style="fill:white;fill-rule:nonzero;"/>
            <path d="M17.284,11.25C17.375,11.637 17.704,11.931 18.125,11.931C18.617,11.931 19.001,11.537 19.001,11.05C19.001,11.013 18.984,10.98 18.98,10.944L17.284,11.25Z" style="fill:rgb(208,50,56);fill-rule:nonzero;"/>
        </g>
    </g>
</svg>
