<?xml version="1.0" encoding="iso-8859-1"?>
<!-- Uploaded to: SVG Repo, www.svgrepo.com, Generator: SVG Repo Mixer Tools -->
<!DOCTYPE svg PUBLIC "-//W3C//DTD SVG 1.1//EN" "http://www.w3.org/Graphics/SVG/1.1/DTD/svg11.dtd">
<svg fill="#000000" height="800px" width="800px" version="1.1" id="Capa_1" xmlns="http://www.w3.org/2000/svg" xmlns:xlink="http://www.w3.org/1999/xlink" 
	 viewBox="0 0 208 208" xml:space="preserve">
<path d="M186.773,100.649c-0.141-0.128-14.169-13.053-17.332-30.762c-3.277-18.353,4.709-53.622,4.791-53.977
	c0.614-2.684-1.056-5.358-3.736-5.985l-41.92-9.795c-2.472-0.574-4.982,0.788-5.842,3.175L104,55.313L85.266,3.306
	c-0.859-2.387-3.368-3.749-5.842-3.175l-41.92,9.795c-2.681,0.627-4.351,3.303-3.736,5.986c0.081,0.354,8.072,35.602,4.79,53.976
	c-3.143,17.602-17.196,30.639-17.331,30.763c-1.042,0.947-1.637,2.291-1.637,3.699v78.36c0,1.828,0.998,3.511,2.602,4.388
	l37.117,20.29c0.746,0.407,1.572,0.612,2.398,0.612c0.739,0,1.478-0.163,2.163-0.492L104,188.255l40.13,19.252
	c0.685,0.329,1.424,0.492,2.163,0.492c0.827,0,1.652-0.205,2.398-0.612l37.118-20.29c1.604-0.877,2.602-2.56,2.602-4.388v-78.36
	C188.41,102.94,187.816,101.598,186.773,100.649z M151.532,70.52v16.548c0,3.73-1.8,7.292-5.069,10.028l-8.8,7.366l-8.8-7.366
	c-3.269-2.736-5.069-6.298-5.069-10.028V70.52l13.869-2.949L151.532,70.52z"/>
</svg>